{"title":"Housebound 2014 HDRIP x264 AC3 TiTAN","uid":11241572,"size":930093320,"categoryP":"video","categoryS":"movies","magnet":"?xt=urn:btih:4bb1169dcfb8b272458d1a8b95c4e8af07dd6e04&amp;dn=Housebound+2014+HDRIP+x264+AC3+TiTAN&amp;tr=udp%3A%2F%2Ftracker.openbittorrent.com%3A80&amp;tr=udp%3A%2F%2Fopen.demonii.com%3A1337&amp;tr=udp%3A%2F%2Ftracker.coppersurfer.tk%3A6969&amp;tr=udp%3A%2F%2Fexodus.desync.com%3A6969","seeders":0,"leechers":1,"uploader":"TvTeam","files":3,"time":1413679788,"description":" &lt;a href=&quot;http://www.torrenting.com&quot; rel=&quot;nofollow&quot; target=&quot;_NEW&quot;&gt;http://www.torrenting.com&lt;/a&gt;\n\nSign up is OPEN - for time being. Come and have fun.\n\n\n....[IMG]http://i.imgur.com/9lxxWP8.jpg[/IMG]\n\n[IMG]http://i.imgur.com/m1Gi4Pt.jpg[/IMG]\n &lt;a href=&quot;\nhttp://www.imdb.com/title/tt3504048/&quot; rel=&quot;nofollow&quot; target=&quot;_NEW&quot;&gt;\nhttp://www.imdb.com/title/tt3504048/&lt;/a&gt;\n\nSource: OWN\n\nGeneral\n\nFormat                                   : Matroska\nFormat version                           : Version 2\nFile size                                : 887 MiB\nDuration                                 : 1h 46mn\nOverall bit rate mode                    : Variable\nOverall bit rate                         : 1 162 Kbps\nEncoded date                             : UTC 2014-10-18 22:21:09\n\nVideo\nID                                       : 1\nFormat                                   : AVC\nFormat/Info                              : Advanced Video Codec\nFormat profile                           : &lt;a class=&quot;__cf_email__&quot; href=&quot;/cdn-cgi/l/email-protection&quot; data-cfemail=&quot;5911303e3119156d7768&quot;&gt;[email&amp;#160;protected]&lt;/a&gt;&lt;script cf-hash='f9e31' type=&quot;text/javascript&quot;&gt;\n/* &lt;![CDATA[ */!function(){try{var t=&quot;currentScript&quot;in document?document.currentScript:function(){for(var t=document.getElementsByTagName(&quot;script&quot;),e=t.length;e--;)if(t[e].getAttribute(&quot;cf-hash&quot;))return t[e]}();if(t&amp;&amp;t.previousSibling){var e,r,n,i,c=t.previousSibling,a=c.getAttribute(&quot;data-cfemail&quot;);if(a){for(e=&quot;&quot;,r=parseInt(a.substr(0,2),16),n=2;a.length-n;n+=2)i=parseInt(a.substr(n,2),16)^r,e+=String.fromCharCode(i);e=document.createTextNode(e),c.parentNode.replaceChild(e,c)}}}catch(u){}}();/* ]]&gt; */&lt;/script&gt;\nFormat settings, CABAC                   : Yes\nFormat settings, ReFrames                : 3 frames\nCodec ID                                 : V_MPEG4/ISO/AVC\nDuration                                 : 1h 46mn\nBit rate mode                            : Variable\nBit rate                                 : 754 Kbps\nMaximum bit rate                         : 40.0 Mbps\nWidth                                    : 720 pixels\nHeight                                   : 304 pixels\nDisplay aspect ratio                     : 2.35:1\nFrame rate mode                          : Constant\nFrame rate                               : 25.000 fps\nColor space                              : YUV\nChroma subsampling                       : 4:2:0\nBit depth                                : 8 bits\nScan type                                : Progressive\nBits/(Pixel*Frame)                       : 0.138\nStream size                              : 576 MiB (65%)\nDefault                                  : Yes\nForced                                   : No\nColor primaries                          : BT.709\nTransfer characteristics                 : BT.709\nMatrix coefficients                      : BT.709\n\nAudio\nID                                       : 2\nFormat                                   : AC-3\nFormat/Info                              : Audio Coding 3\nMode extension                           : CM (complete main)\nFormat settings, Endianness              : Big\nCodec ID                                 : A_AC3\nDuration                                 : 1h 46mn\nBit rate mode                            : Constant\nBit rate                                 : 384 Kbps\nChannel(s)                               : 6 channels\nChannel positions                        : Front: L C R, Side: L R, LFE\nSampling rate                            : 48.0 KHz\nBit depth                                : 16 bits\nCompression mode                         : Lossy\nStream size                              : 293 MiB (33%)\nLanguage                                 : English\nDefault                                  : Yes\nForced                                   : No\n\n[IMG]http://i.imgur.com/kC99rXi.png[/IMG]\n[IMG]http://i.imgur.com/qncwcuP.png[/IMG]\n[IMG]http://i.imgur.com/PrcUa1P.png[/IMG]\n[IMG]http://i.imgur.com/2Ua9Biv.png[/IMG]\n[IMG]http://i.imgur.com/DQwc45q.png[/IMG]\n[IMG]http://i.imgur.com/9mwHKpl.png[/IMG]\n[IMG]http://i.imgur.com/GoW6aVs.png[/IMG]","torrent":{"xt":"urn:btih:4bb1169dcfb8b272458d1a8b95c4e8af07dd6e04","amp;dn":"Housebound+2014+HDRIP+x264+AC3+TiTAN","amp;tr":["udp%3A%2F%2Ftracker.openbittorrent.com%3A80","udp%3A%2F%2Fopen.demonii.com%3A1337","udp%3A%2F%2Ftracker.coppersurfer.tk%3A6969","udp%3A%2F%2Fexodus.desync.com%3A6969"],"infoHash":"4bb1169dcfb8b272458d1a8b95c4e8af07dd6e04","infoHashBuffer":{"type":"Buffer","data":[75,177,22,157,207,184,178,114,69,141,26,139,149,196,232,175,7,221,110,4]},"announce":[],"urlList":[]}}